<?xml version="1.0" encoding="UTF-8"?>
<svg version="1.1" xmlns="http://www.w3.org/2000/svg" width="1105" height="1106">
<path d="M0 0 C3.38172251 0.01714331 6.76273907 0.00690947 10.14443779 -0.01034164 C38.28080492 -0.13169603 38.28080492 -0.13169603 51.36303711 3.39111328 C51.69303711 3.72111328 52.02303711 4.05111328 52.36303711 4.39111328 C54.86079731 4.85795656 57.35671686 5.28841977 59.86303711 5.70361328 C65.34657562 6.66214259 70.22461281 7.76941576 75.17553711 10.42626953 C77.56477588 11.5593167 77.56477588 11.5593167 81.12475586 12.28173828 C85.46994616 13.31953819 89.21955862 15.0337308 93.17553711 17.07861328 C93.86695801 17.43020508 94.55837891 17.78179687 95.27075195 18.14404297 C101.20230148 21.20824098 106.83151669 24.65256845 112.36303711 28.39111328 C112.96631836 28.79330078 113.56959961 29.19548828 114.19116211 29.60986328 C115.58178711 30.53694661 116.97241211 31.46402995 118.36303711 32.39111328 C119.78616211 33.19548828 119.78616211 33.19548828 121.23803711 34.01611328 C121.93928711 34.46986328 122.64053711 34.92361328 123.36303711 35.39111328 C123.36303711 36.05111328 123.36303711 36.71111328 123.36303711 37.39111328 C124.10553711 37.65923828 124.84803711 37.92736328 125.61303711 38.20361328 C128.2536566 39.34388079 130.21856555 40.48491634 132.36303711 42.39111328 C132.36303711 43.05111328 132.36303711 43.71111328 132.36303711 44.39111328 C133.26022461 44.57673828 133.26022461 44.57673828 134.17553711 44.76611328 C136.36303711 45.39111328 136.36303711 45.39111328 139.36303711 47.39111328 C139.36303711 48.05111328 139.36303711 48.71111328 139.36303711 49.39111328 C140.02303711 49.39111328 140.68303711 49.39111328 141.36303711 49.39111328 C141.36303711 50.05111328 141.36303711 50.71111328 141.36303711 51.39111328 C142.26022461 51.82423828 142.26022461 51.82423828 143.17553711 52.26611328 C145.36303711 53.39111328 145.36303711 53.39111328 148.36303711 55.39111328 C148.36303711 56.05111328 148.36303711 56.71111328 148.36303711 57.39111328 C149.02303711 57.39111328 149.68303711 57.39111328 150.36303711 57.39111328 C153.36303711 60.85265174 153.36303711 60.85265174 153.36303711 63.39111328 C154.02303711 63.39111328 154.68303711 63.39111328 155.36303711 63.39111328 C158.67860919 67.48347653 161.30782277 72.10552376 163.61303711 76.82861328 C165.10311602 80.34645928 165.10311602 80.34645928 167.36303711 82.39111328 C168.02970378 84.05777995 168.69637044 85.72444661 169.36303711 87.39111328 C170.02303711 88.05111328 170.68303711 88.71111328 171.36303711 89.39111328 C171.67241211 90.48423828 171.98178711 91.57736328 172.30053711 92.70361328 C173.16053048 96.33692491 173.16053048 96.33692491 174.98803711 98.95361328 C176.67358427 101.94162869 176.59862459 104.01435933 176.36303711 107.39111328 C177.02303711 107.39111328 177.68303711 107.39111328 178.36303711 107.39111328 C178.36303711 109.04111328 178.36303711 110.69111328 178.36303711 112.39111328 C179.02303711 112.39111328 179.68303711 112.39111328 180.36303711 112.39111328 C180.49581055 113.10138672 180.62858398 113.81166016 180.76538086 114.54345703 C180.94198242 115.46255859 181.11858398 116.38166016 181.30053711 117.32861328 C181.47456055 118.24513672 181.64858398 119.16166016 181.82788086 120.10595703 C182.14018699 122.34401172 182.14018699 122.34401172 183.36303711 123.39111328 C183.40384494 125.39069692 183.40558067 127.39156582 183.36303711 129.39111328 C184.02303711 129.39111328 184.68303711 129.39111328 185.36303711 129.39111328 C185.55834961 131.40934245 185.75366211 133.42757161 185.94897461 135.44580078 C186.31118194 138.0222567 186.8256572 140.47925498 187.39038086 143.01611328 C188.51780274 148.55156991 188.62475317 153.88350456 188.55053711 159.51611328 C188.54989258 160.45326172 188.54924805 161.39041016 188.54858398 162.35595703 C188.45453297 177.29961742 188.45453297 177.29961742 186.36303711 179.39111328 C186.20410879 180.76260582 186.08607401 182.13892819 185.98803711 183.51611328 C185.54813278 187.95006964 184.15713566 191.30056858 182.36303711 195.39111328 C181.99596287 197.09251576 181.66436347 198.80184483 181.36303711 200.51611328 C180.64621773 204.45565779 179.534898 207.00301029 177.36303711 210.39111328 C176.54092939 212.71092219 175.81083973 215.04398018 175.10913086 217.40283203 C174.36303711 219.39111328 174.36303711 219.39111328 172.36303711 221.39111328 C172.11553711 222.19548828 171.86803711 222.99986328 171.61303711 223.82861328 C169.79483054 229.01050201 167.06417046 233.62278604 164.36303711 238.39111328 C163.94022461 239.13876953 163.51741211 239.88642578 163.08178711 240.65673828 C162.18167142 242.23837014 161.27345541 243.81538929 160.36303711 245.39111328 C159.70303711 245.39111328 159.04303711 245.39111328 158.36303711 245.39111328 C158.03303711 247.04111328 157.70303711 248.69111328 157.36303711 250.39111328 C156.70303711 250.39111328 156.04303711 250.39111328 155.36303711 250.39111328 C154.70303711 252.04111328 154.04303711 253.69111328 153.36303711 255.39111328 C152.70303711 255.39111328 152.04303711 255.39111328 151.36303711 255.39111328 C151.11553711 255.94798828 150.86803711 256.50486328 150.61303711 257.07861328 C147.75666689 262.36289818 143.68462383 265.99670647 139.16772461 269.84033203 C137.28592457 271.41792337 137.28592457 271.41792337 135.36303711 273.39111328 C134.37303711 273.39111328 133.38303711 273.39111328 132.36303711 273.39111328 C132.36303711 274.05111328 132.36303711 274.71111328 132.36303711 275.39111328 C127.00589425 280.39111328 127.00589425 280.39111328 123.36303711 280.39111328 C123.09491211 281.03048828 122.82678711 281.66986328 122.55053711 282.32861328 C121.36303711 284.39111328 121.36303711 284.39111328 118.36303711 285.39111328 C118.36303711 286.05111328 118.36303711 286.71111328 118.36303711 287.39111328 C116.90209961 288.68017578 116.90209961 288.68017578 114.98803711 290.01611328 C114.36155273 290.46212891 113.73506836 290.90814453 113.08959961 291.36767578 C111.36303711 292.39111328 111.36303711 292.39111328 109.36303711 292.39111328 C109.36303711 293.05111328 109.36303711 293.71111328 109.36303711 294.39111328 C107.29014149 296.0293218 105.23023646 297.53363976 103.05053711 299.01611328 C102.45563477 299.43634766 101.86073242 299.85658203 101.24780273 300.28955078 C96.7414741 303.39111328 96.7414741 303.39111328 93.36303711 303.39111328 C93.36303711 304.05111328 93.36303711 304.71111328 93.36303711 305.39111328 C91.60522461 306.97705078 91.60522461 306.97705078 89.23803711 308.76611328 C88.4169043 309.38744141 87.59577148 310.00876953 86.74975586 310.64892578 C84.00358034 312.65349907 81.21187114 314.53605857 78.36303711 316.39111328 C77.62053711 316.96861328 76.87803711 317.54611328 76.11303711 318.14111328 C74.36303711 319.39111328 74.36303711 319.39111328 72.36303711 319.39111328 C72.36303711 320.05111328 72.36303711 320.71111328 72.36303711 321.39111328 C69.80157141 323.68759977 68.88336139 324.39111328 65.36303711 324.39111328 C65.36303711 325.05111328 65.36303711 325.71111328 65.36303711 326.39111328 C60.97842172 329.39111328 60.97842172 329.39111328 58.36303711 329.39111328 C58.36303711 330.05111328 58.36303711 330.71111328 58.36303711 331.39111328 C56.66650391 332.76391602 56.66650391 332.76391602 54.31225586 334.32470703 C53.46856445 334.89125 52.62487305 335.45779297 51.75561523 336.04150391 C50.86293945 336.63125 49.97026367 337.22099609 49.05053711 337.82861328 C47.30246626 338.99101007 45.55629374 340.15626796 43.81225586 341.32470703 C43.03197021 341.840896 42.25168457 342.35708496 41.44775391 342.88891602 C39.34242238 344.30535383 39.34242238 344.30535383 37.77246094 346.08276367 C36.36303711 347.39111328 36.36303711 347.39111328 33.36303711 347.39111328 C33.36303711 348.05111328 33.36303711 348.71111328 33.36303711 349.39111328 C31.67553711 350.68798828 31.67553711 350.68798828 29.36303711 352.14111328 C25.43903422 354.65000332 21.79162904 357.342579 18.18725586 360.28955078 C16.36303711 361.39111328 16.36303711 361.39111328 12.36303711 361.39111328 C12.13616211 361.97376953 11.90928711 362.55642578 11.67553711 363.15673828 C10.00352091 366.00314682 8.083269 367.29072298 5.36303711 369.14111328 C4.47616211 369.75470703 3.58928711 370.36830078 2.67553711 371.00048828 C0.36303711 372.39111328 0.36303711 372.39111328 -1.63696289 372.39111328 C-1.96696289 373.38111328 -2.29696289 374.37111328 -2.63696289 375.39111328 C-3.62696289 375.39111328 -4.61696289 375.39111328 -5.63696289 375.39111328 C-5.63696289 376.05111328 -5.63696289 376.71111328 -5.63696289 377.39111328 C-6.44133789 377.65923828 -7.24571289 377.92736328 -8.07446289 378.20361328 C-8.92008789 378.59548828 -9.76571289 378.98736328 -10.63696289 379.39111328 C-10.96696289 380.38111328 -11.29696289 381.37111328 -11.63696289 382.39111328 C-14.19946289 383.57861328 -14.19946289 383.57861328 -16.63696289 384.39111328 C-16.63696289 385.05111328 -16.63696289 385.71111328 -16.63696289 386.39111328 C-17.62696289 386.39111328 -18.61696289 386.39111328 -19.63696289 386.39111328 C-19.63696289 387.05111328 -19.63696289 387.71111328 -19.63696289 388.39111328 C-21.75415039 390.33642578 -21.75415039 390.33642578 -24.51196289 392.51611328 C-25.41688477 393.24056641 -26.32180664 393.96501953 -27.25415039 394.71142578 C-29.63696289 396.39111328 -29.63696289 396.39111328 -31.63696289 396.39111328 C-31.63696289 397.05111328 -31.63696289 397.71111328 -31.63696289 398.39111328 C-32.29696289 398.39111328 -32.95696289 398.39111328 -33.63696289 398.39111328 C-33.63696289 399.05111328 -33.63696289 399.71111328 -33.63696289 400.39111328 C-34.42071289 400.63861328 -35.20446289 400.88611328 -36.01196289 401.14111328 C-39.08244776 402.60324893 -39.28188299 403.4099375 -40.63696289 406.39111328 C-42.76196289 408.14111328 -42.76196289 408.14111328 -44.63696289 409.39111328 C-43.48522934 411.85911375 -42.58912724 413.43894894 -40.63696289 415.39111328 C-40.63696289 416.38111328 -40.63696289 417.37111328 -40.63696289 418.39111328 C-39.89446289 418.65923828 -39.15196289 418.92736328 -38.38696289 419.20361328 C-35.7463434 420.34388079 -33.78143445 421.48491634 -31.63696289 423.39111328 C-31.63696289 424.05111328 -31.63696289 424.71111328 -31.63696289 425.39111328 C-30.95633789 425.59736328 -30.27571289 425.80361328 -29.57446289 426.01611328 C-26.54071291 427.43616647 -24.38942105 429.21365057 -21.90258789 431.43017578 C-12.8933061 439.2278645 -3.19473332 446.28945126 6.36303711 453.39111328 C11.80185258 457.44195127 17.19290555 461.55202477 22.55688477 465.70141602 C26.3405408 468.62393729 30.17056638 471.46903095 34.07006836 474.23486328 C34.49674805 474.61642578 34.92342773 474.99798828 35.36303711 475.39111328 C35.36303711 476.05111328 35.36303711 476.71111328 35.36303711 477.39111328 C37.01303711 478.05111328 38.66303711 478.71111328 40.36303711 479.39111328 C40.36303711 480.05111328 40.36303711 480.71111328 40.36303711 481.39111328 C41.02303711 481.39111328 41.68303711 481.39111328 42.36303711 481.39111328 C42.36303711 482.05111328 42.36303711 482.71111328 42.36303711 483.39111328 C43.68303711 483.72111328 45.00303711 484.05111328 46.36303711 484.39111328 C46.36303711 485.05111328 46.36303711 485.71111328 46.36303711 486.39111328 C47.04366211 486.61798828 47.72428711 486.84486328 48.42553711 487.07861328 C52.061908 488.70337475 55.39132974 490.71914585 58.36303711 493.39111328 C58.36303711 494.05111328 58.36303711 494.71111328 58.36303711 495.39111328 C59.14678711 495.70048828 59.93053711 496.00986328 60.73803711 496.32861328 C63.36303711 497.39111328 63.36303711 497.39111328 65.36303711 498.39111328 C65.36303711 499.05111328 65.36303711 499.71111328 65.36303711 500.39111328 C67.01303711 501.05111328 68.66303711 501.71111328 70.36303711 502.39111328 C70.36303711 503.05111328 70.36303711 503.71111328 70.36303711 504.39111328 C71.68303711 504.72111328 73.00303711 505.05111328 74.36303711 505.39111328 C74.36303711 506.05111328 74.36303711 506.71111328 74.36303711 507.39111328 C75.08491211 507.63861328 75.80678711 507.88611328 76.55053711 508.14111328 C79.6162567 509.50365532 81.80132829 511.2448167 84.36303711 513.39111328 C85.02303711 513.72111328 85.68303711 514.05111328 86.36303711 514.39111328 C86.36303711 515.05111328 86.36303711 515.71111328 86.36303711 516.39111328 C88.01303711 517.05111328 89.66303711 517.71111328 91.36303711 518.39111328 C91.36303711 519.05111328 91.36303711 519.71111328 91.36303711 520.39111328 C92.10553711 520.65923828 92.84803711 520.92736328 93.61303711 521.20361328 C96.2536566 522.34388079 98.21856555 523.48491634 100.36303711 525.39111328 C100.36303711 526.05111328 100.36303711 526.71111328 100.36303711 527.39111328 C100.91991211 527.65923828 101.47678711 527.92736328 102.05053711 528.20361328 C104.57529045 529.50010824 107.00018195 530.81587651 109.36303711 532.39111328 C109.36303711 533.05111328 109.36303711 533.71111328 109.36303711 534.39111328 C110.02303711 534.39111328 110.68303711 534.39111328 111.36303711 534.39111328 C111.36303711 535.05111328 111.36303711 535.71111328 111.36303711 536.39111328 C111.93538086 536.65923828 112.50772461 536.92736328 113.09741211 537.20361328 C115.44188345 538.43243964 117.48708649 539.81633504 119.61303711 541.39111328 C120.67264648 542.16455078 120.67264648 542.16455078 121.75366211 542.95361328 C122.28475586 543.42798828 122.81584961 543.90236328 123.36303711 544.39111328 C123.36303711 545.05111328 123.36303711 545.71111328 123.36303711 546.39111328 C124.02303711 546.39111328 124.68303711 546.39111328 125.36303711 546.39111328 C125.36303711 547.05111328 125.36303711 547.71111328 125.36303711 548.39111328 C126.02303711 548.39111328 126.68303711 548.39111328 127.36303711 548.39111328 C127.36303711 549.05111328 127.36303711 549.71111328 127.36303711 550.39111328 C128.35303711 550.72111328 129.34303711 551.05111328 130.36303711 551.39111328 C130.36303711 552.05111328 130.36303711 552.71111328 130.36303711 553.39111328 C131.02303711 553.39111328 131.68303711 553.39111328 132.36303711 553.39111328 C132.36303711 554.05111328 132.36303711 554.71111328 132.36303711 555.39111328 C133.02303711 555.39111328 133.68303711 555.39111328 134.36303711 555.39111328 C139.36303711 560.74825614 139.36303711 560.74825614 139.36303711 564.39111328 C140.02303711 564.39111328 140.68303711 564.39111328 141.36303711 564.39111328 C141.36303711 565.38111328 141.36303711 566.37111328 141.36303711 567.39111328 C142.02303711 567.39111328 142.68303711 567.39111328 143.36303711 567.39111328 C145.6595236 569.95257898 146.36303711 570.870789 146.36303711 574.39111328 C147.02303711 574.39111328 147.68303711 574.39111328 148.36303711 574.39111328 C148.58991211 575.03048828 148.81678711 575.66986328 149.05053711 576.32861328 C150.17084966 578.9426759 151.40017829 581.29861356 152.80053711 583.76611328 C156.34467395 590.07488473 158.76141789 596.40040403 160.71459961 603.35205078 C161.18230321 605.36356718 161.18230321 605.36356718 162.36303711 606.39111328 C162.51772461 608.12361328 162.51772461 608.12361328 162.67553711 609.89111328 C163.03747127 613.23158762 163.86528462 615.70270126 165.36303711 618.70361328 C167.5277883 623.1816004 167.94749924 627.27147703 168.18725586 632.20361328 C168.12328626 634.36742786 168.12328626 634.36742786 169.36303711 635.39111328 C169.46399275 638.04567521 169.50274709 640.67366504 169.49584961 643.32861328 C169.49680634 644.12388428 169.49776306 644.91915527 169.49874878 645.73852539 C169.49943054 647.42317789 169.49757654 649.10783299 169.4934082 650.79248047 C169.48805986 653.38010525 169.4933533 655.96755644 169.49975586 658.55517578 C169.49909508 660.18798867 169.49781391 661.82080144 169.49584961 663.45361328 C169.49787384 664.232771 169.49989807 665.01192871 169.50198364 665.81469727 C169.47798815 671.27616224 169.47798815 671.27616224 168.36303711 672.39111328 C168.22931793 673.88876807 168.13163255 675.38968922 168.05053711 676.89111328 C167.63494829 681.58994815 166.38674362 685.1045225 164.33569336 689.31689453 C162.96423696 692.2415666 162.22114024 695.28048944 161.36303711 698.39111328 C160.07370441 702.07420708 158.72521162 705.73440209 157.36303711 709.39111328 C156.70303711 709.39111328 156.04303711 709.39111328 155.36303711 709.39111328 C155.21866211 710.13361328 155.07428711 710.87611328 154.92553711 711.64111328 C154.46116219 713.91139067 153.94440142 716.14870808 153.36303711 718.39111328 C152.70303711 718.39111328 152.04303711 718.39111328 151.36303711 718.39111328 C151.03303711 720.04111328 150.70303711 721.69111328 150.36303711 723.39111328 C149.70303711 723.39111328 149.04303711 723.39111328 148.36303711 723.39111328 C148.21866211 724.17486328 148.07428711 724.95861328 147.92553711 725.76611328 C147.36303711 728.39111328 147.36303711 728.39111328 146.36303711 730.39111328 C145.70303711 730.39111328 145.04303711 730.39111328 144.36303711 730.39111328 C144.03303711 731.71111328 143.70303711 733.03111328 143.36303711 734.39111328 C142.70303711 734.39111328 142.04303711 734.39111328 141.36303711 734.39111328 C141.21866211 734.98923828 141.07428711 735.58736328 140.92553711 736.20361328 C140.47579321 737.95261733 139.9341137 739.67788351 139.36303711 741.39111328 C138.70303711 741.39111328 138.04303711 741.39111328 137.36303711 741.39111328 C137.03303711 742.38111328 136.70303711 743.37111328 136.36303711 744.39111328 C135.70303711 744.39111328 135.04303711 744.39111328 134.36303711 744.39111328 C134.36303711 745.05111328 134.36303711 745.71111328 134.36303711 746.39111328 C133.70303711 746.39111328 133.04303711 746.39111328 132.36303711 746.39111328 C132.36303711 747.38111328 132.36303711 748.37111328 132.36303711 749.39111328 C131.70303711 749.39111328 131.04303711 749.39111328 130.36303711 749.39111328 C130.36303711 750.05111328 130.36303711 750.71111328 130.36303711 751.39111328 C129.70303711 751.39111328 129.04303711 751.39111328 128.36303711 751.39111328 C127.70303711 752.71111328 127.04303711 754.03111328 126.36303711 755.39111328 C125.37303711 755.39111328 124.38303711 755.39111328 123.36303711 755.39111328 C123.36303711 756.38111328 123.36303711 757.37111328 123.36303711 758.39111328 C122.70303711 758.39111328 122.04303711 758.39111328 121.36303711 758.39111328 C121.36303711 759.05111328 121.36303711 759.71111328 121.36303711 760.39111328 C120.37303711 760.39111328 119.38303711 760.39111328 118.36303711 760.39111328 C118.36303711 761.05111328 118.36303711 761.71111328 118.36303711 762.39111328 C117.70303711 762.39111328 117.04303711 762.39111328 116.36303711 762.39111328 C116.36303711 763.05111328 116.36303711 763.71111328 116.36303711 764.39111328 C114.90209961 765.68017578 114.90209961 765.68017578 112.98803711 767.01611328 C112.04831055 767.68513672 112.04831055 767.68513672 111.08959961 768.36767578 C109.36303711 769.39111328 109.36303711 769.39111328 107.36303711 769.39111328 C107.36303711 770.05111328 107.36303711 770.71111328 107.36303711 771.39111328 C102.97842172 774.39111328 102.97842172 774.39111328 100.36303711 774.39111328 C100.36303711 775.05111328 100.36303711 775.71111328 100.36303711 776.39111328 C99.62053711 776.65923828 98.87803711 776.92736328 98.11303711 777.20361328 C95.35029154 778.26460208 95.35029154 778.26460208 93.23803711 780.01611328 C91.36303711 781.39111328 91.36303711 781.39111328 88.36303711 781.39111328 C88.36303711 782.05111328 88.36303711 782.71111328 88.36303711 783.39111328 C78.95301433 787.79885816 78.95301433 787.79885816 74.36303711 788.39111328 C74.36303711 789.05111328 74.36303711 789.71111328 74.36303711 790.39111328 C72.71303711 790.39111328 71.06303711 790.39111328 69.36303711 790.39111328 C69.36303711 791.05111328 69.36303711 791.71111328 69.36303711 792.39111328 C67.38303711 792.39111328 65.40303711 792.39111328 63.36303711 792.39111328 C63.36303711 793.05111328 63.36303711 793.71111328 63.36303711 794.39111328 C62.43620117 794.66826172 61.50936523 794.94541016 60.55444336 795.23095703 C59.3569043 795.59318359 58.15936523 795.95541016 56.92553711 796.32861328 C55.73057617 796.68826172 54.53561523 797.04791016 53.30444336 797.41845703 C50.50436166 798.1000047 50.50436166 798.1000047 49.36303711 799.39111328 C47.84375673 799.46291292 46.32136229 799.47503335 44.80053711 799.45361328 C43.97424805 799.44458984 43.14795898 799.43556641 42.29663086 799.42626953 C41.65854492 799.41466797 41.02045898 799.40306641 40.36303711 799.39111328 C40.36303711 800.05111328 40.36303711 800.71111328 40.36303711 801.39111328 C35.40026461 803.46645451 31.21034997 804.73662192 25.83178711 804.98486328 C23.0973417 805.3453374 23.0973417 805.3453374 19.66772461 806.85205078 C15.15384179 808.61505588 10.79065386 809.11259853 5.98803711 809.51611328 C0.50798225 809.79653369 0.50798225 809.79653369 -4.63696289 811.39111328 C-7.3968094 811.49009945 -10.13087746 811.53094559 -12.89086914 811.52392578 C-13.70692123 811.52488251 -14.52297333 811.52583923 -15.36375427 811.52682495 C-17.08950884 811.52750584 -18.81526597 811.52565789 -20.54101562 811.52148438 C-23.19219672 811.51612796 -25.84320892 811.52143595 -28.49438477 811.52783203 C-30.16821327 811.52717137 -31.84204166 811.52589045 -33.51586914 811.52392578 C-34.31376358 811.52595001 -35.11165802 811.52797424 -35.93373108 811.53005981 C-41.52200745 811.50606872 -41.52200745 811.50606872 -42.63696289 810.39111328 C-44.04817191 810.16540144 -45.46872332 809.9972298 -46.89086914 809.85595703 C-47.74487305 809.76894531 -48.59887695 809.68193359 -49.47875977 809.59228516 C-50.3765918 809.50527344 -51.27442383 809.41826172 -52.19946289 809.32861328 C-53.10116211 809.23773437 -54.00286133 809.14685547 -54.93188477 809.05322266 C-57.16654723 808.82857405 -59.40154128 808.6080556 -61.63696289 808.39111328 C-61.63696289 807.73111328 -61.63696289 807.07111328 -61.63696289 806.39111328 C-63.94696289 806.39111328 -66.25696289 806.39111328 -68.63696289 806.39111328 C-68.63696289 805.73111328 -68.63696289 805.07111328 -68.63696289 804.39111328 C-70.36946289 804.48392578 -70.36946289 804.48392578 -72.13696289 804.57861328 C-76.8490941 804.60385684 -80.33255762 803.2358584 -84.63696289 801.39111328 C-84.63696289 800.73111328 -84.63696289 800.07111328 -84.63696289 799.39111328 C-86.21477539 799.45298828 -86.21477539 799.45298828 -87.82446289 799.51611328 C-91.37706462 799.39963454 -93.4856293 798.9190326 -96.63696289 797.39111328 C-96.63696289 796.73111328 -96.63696289 796.07111328 -96.63696289 795.39111328 C-97.48258789 795.45298828 -98.32821289 795.51486328 -99.19946289 795.57861328 C-103.37316132 795.350957 -105.89129236 794.18903514 -109.63696289 792.39111328 C-109.63696289 791.73111328 -109.63696289 791.07111328 -109.63696289 790.39111328 C-110.71977539 790.20548828 -110.71977539 790.20548828 -111.82446289 790.01611328 C-114.59418184 789.40062018 -117.03399829 788.50666954 -119.63696289 787.39111328 C-119.63696289 786.73111328 -119.63696289 786.07111328 -119.63696289 785.39111328 C-120.95696289 785.39111328 -122.27696289 785.39111328 -123.63696289 785.39111328 C-123.63696289 784.73111328 -123.63696289 784.07111328 -123.63696289 783.39111328 C-124.65790039 783.26736328 -124.65790039 783.26736328 -125.69946289 783.14111328 C-129.51165359 782.167788 -132.27766618 780.43303873 -135.63696289 778.39111328 C-135.63696289 777.73111328 -135.63696289 777.07111328 -135.63696289 776.39111328 C-136.71977539 776.29830078 -136.71977539 776.29830078 -137.82446289 776.20361328 C-141.48058394 775.14740053 -143.01168062 773.08371048 -145.63696289 770.39111328 C-147.81042857 769.52992194 -147.81042857 769.52992194 -149.63696289 769.39111328 C-149.63696289 768.73111328 -149.63696289 768.07111328 -149.63696289 767.39111328 C-150.53415039 767.20548828 -150.53415039 767.20548828 -151.44946289 767.01611328 C-153.63696289 766.39111328 -153.63696289 766.39111328 -156.63696289 764.39111328 C-156.63696289 763.73111328 -156.63696289 763.07111328 -156.63696289 762.39111328 C-157.29696289 762.39111328 -157.95696289 762.39111328 -158.63696289 762.39111328 C-158.63696289 761.73111328 -158.63696289 761.07111328 -158.63696289 760.39111328 C-159.40008789 760.28798828 -160.16321289 760.18486328 -160.94946289 760.07861328 C-163.88038947 759.32884137 -164.65213451 758.55638061 -166.63696289 756.39111328 C-167.62696289 756.06111328 -168.61696289 755.73111328 -169.63696289 755.39111328 C-169.63696289 754.73111328 -169.63696289 754.07111328 -169.63696289 753.39111328 C-170.62696289 753.39111328 -171.61696289 753.39111328 -172.63696289 753.39111328 C-172.63696289 752.73111328 -172.63696289 752.07111328 -172.63696289 751.39111328 C-173.25571289 751.08173828 -173.87446289 750.77236328 -174.51196289 750.45361328 C-175.88696289 749.76611328 -177.26196289 749.07861328 -178.63696289 748.39111328 C-178.63696289 747.73111328 -178.63696289 747.07111328 -178.63696289 746.39111328 C-179.62696289 746.39111328 -180.61696289 746.39111328 -181.63696289 746.39111328 C-181.63696289 745.73111328 -181.63696289 745.07111328 -181.63696289 744.39111328 C-182.37946289 744.12298828 -183.12196289 743.85486328 -183.88696289 743.57861328 C-186.52758238 742.43834578 -188.49249133 741.29731022 -190.63696289 739.39111328 C-190.63696289 738.73111328 -190.63696289 738.07111328 -190.63696289 737.39111328 C-191.62696289 737.39111328 -192.61696289 737.39111328 -193.63696289 737.39111328 C-193.88446289 736.58673828 -194.13196289 735.78236328 -194.38696289 734.95361328 C-195.34562961 732.25144009 -195.34562961 732.25144009 -197.57446289 731.64111328 C-198.25508789 731.55861328 -198.93571289 731.47611328 -199.63696289 731.39111328 C-200.62696289 731.06111328 -201.61696289 730.73111328 -202.63696289 730.39111328 C-203.82446289 727.82861328 -203.82446289 727.82861328 -204.63696289 725.39111328 C-205.62696289 725.39111328 -206.61696289 725.39111328 -207.63696289 725.39111328 C-207.63696289 724.73111328 -207.63696289 724.07111328 -207.63696289 723.39111328 C-208.56508789 723.12298828 -209.49321289 722.85486328 -210.44946289 722.57861328 C-213.39477314 721.48134084 -214.78714166 720.85754159 -216.63696289 718.39111328 C-216.63696289 717.73111328 -216.63696289 717.07111328 -216.63696289 716.39111328 C-217.19383789 716.12298828 -217.75071289 715.85486328 -218.32446289 715.57861328 C-220.84921623 714.28211832 -223.27410773 712.96635005 -225.63696289 711.39111328 C-225.63696289 710.73111328 -225.63696289 710.07111328 -225.63696289 709.39111328 C-226.29696289 709.39111328 -226.95696289 709.39111328 -227.63696289 709.39111328 C-227.63696289 708.73111328 -227.63696289 708.07111328 -227.63696289 707.39111328 C-229.28696289 707.06111328 -230.93696289 706.73111328 -232.63696289 706.39111328 C-232.63696289 705.73111328 -232.63696289 705.07111328 -232.63696289 704.39111328 C-233.29696289 704.39111328 -233.95696289 704.39111328 -234.63696289 704.39111328 C-234.63696289 703.73111328 -234.63696289 703.07111328 -234.63696289 702.39111328 C-235.29696289 702.39111328 -235.95696289 702.39111328 -236.63696289 702.39111328 C-236.63696289 701.73111328 -236.63696289 701.07111328 -236.63696289 700.39111328 C-237.53415039 700.20548828 -237.53415039 700.20548828 -238.44946289 700.01611328 C-240.63696289 699.39111328 -240.63696289 699.39111328 -243.63696289 697.39111328 C-243.63696289 696.73111328 -243.63696289 696.07111328 -243.63696289 695.39111328 C-244.62696289 695.39111328 -245.61696289 695.39111328 -246.63696289 695.39111328 C-246.63696289 694.73111328 -246.63696289 694.07111328 -246.63696289 693.39111328 C-247.95696289 693.06111328 -249.27696289 692.73111328 -250.63696289 692.39111328 C-250.63696289 691.73111328 -250.63696289 691.07111328 -250.63696289 690.39111328 C-252.28696289 689.73111328 -253.93696289 689.07111328 -255.63696289 688.39111328 C-255.63696289 687.73111328 -255.63696289 687.07111328 -255.63696289 686.39111328 C-256.29696289 686.39111328 -256.95696289 686.39111328 -257.63696289 686.39111328 C-257.63696289 685.73111328 -257.63696289 685.07111328 -257.63696289 684.39111328 C-259.28696289 684.06111328 -260.93696289 683.73111328 -262.63696289 683.39111328 C-262.63696289 682.73111328 -262.63696289 682.07111328 -262.63696289 681.39111328 C-263.29696289 681.39111328 -263.95696289 681.39111328 -264.63696289 681.39111328 C-264.63696289 680.73111328 -264.63696289 680.07111328 -264.63696289 679.39111328 C-265.29696289 679.39111328 -265.95696289 679.39111328 -266.63696289 679.39111328 C-266.63696289 678.73111328 -266.63696289 678.07111328 -266.63696289 677.39111328 C-267.60633789 677.12298828 -268.57571289 676.85486328 -269.57446289 676.57861328 C-271.09040039 675.99080078 -271.09040039 675.99080078 -272.63696289 675.39111328 C-272.96696289 674.40111328 -273.29696289 673.41111328 -273.63696289 672.39111328 C-276.14143805 671.17241399 -276.14143805 671.17241399 -278.63696289 670.39111328 C-278.63696289 669.73111328 -278.63696289 669.07111328 -278.63696289 668.39111328 C-279.95696289 668.06111328 -281.27696289 667.73111328 -282.63696289 667.39111328 C-282.63696289 666.73111328 -282.63696289 666.07111328 -282.63696289 665.39111328 C-283.62696289 665.39111328 -284.61696289 665.39111328 -285.63696289 665.39111328 C-285.63696289 664.73111328 -285.63696289 664.07111328 -285.63696289 663.39111328 C-286.29696289 663.39111328 -286.95696289 663.39111328 -287.63696289 663.39111328 C-287.63696289 662.73111328 -287.63696289 662.07111328 -287.63696289 661.39111328 C-288.29696289 661.39111328 -288.95696289 661.39111328 -289.63696289 661.39111328 C-290.47223559 665.78236892 -290.78306268 669.97493311 -290.84790039 674.44189453 C-290.87597456 675.79412006 -290.90463907 677.14633344 -290.93383789 678.49853516 C-290.97493308 680.59805883 -291.01188409 682.69735699 -291.03833008 684.79711914 C-291.14776348 692.82066295 -291.52554511 699.895425 -294.63696289 707.39111328 C-295.29696289 707.39111328 -295.95696289 707.39111328 -296.63696289 707.39111328 C-296.54415039 708.75236328 -296.54415039 708.75236328 -296.44946289 710.14111328 C-296.66387506 713.85759089 -297.40753012 714.56144861 -299.63696289 717.39111328 C-299.96696289 718.54611328 -300.29696289 719.70111328 -300.63696289 720.89111328 C-301.60389384 724.27537159 -302.53159965 725.69624833 -304.63696289 728.39111328 C-305.3308321 730.04318284 -306.02360456 731.69573484 -306.70727539 733.35205078 C-311.08885508 742.96207009 -317.73699398 753.34342318 -325.63696289 760.39111328 C-326.29696289 760.39111328 -326.95696289 760.39111328 -327.63696289 760.39111328 C-327.63696289 761.05111328 -327.63696289 761.71111328 -327.63696289 762.39111328 C-329.29544467 763.40462992 -330.9636225 764.40232123 -332.63696289 765.39111328 C-333.33821289 766.11298828 -334.03946289 766.83486328 -334.76196289 767.57861328 C-336.63696289 769.39111328 -336.63696289 769.39111328 -339.63696289 769.39111328 C-339.63696289 770.05111328 -339.63696289 770.71111328 -339.63696289 771.39111328 C-341.06274414 772.68017578 -341.06274414 772.68017578 -342.94946289 774.01611328 C-343.87178711 774.68513672 -343.87178711 774.68513672 -344.81274414 775.36767578 C-346.63696289 776.39111328 -346.63696289 776.39111328 -349.63696289 776.39111328 C-349.96696289 777.38111328 -350.29696289 778.37111328 -350.63696289 779.39111328 C-352.49243164 780.67236328 -352.49243164 780.67236328 -354.82446289 781.89111328 C-355.63786133 782.32166016 -356.45125977 782.75220703 -357.28930664 783.19580078 C-360.06460513 784.60884793 -362.85144081 785.99835224 -365.63696289 787.39111328 C-366.42071289 787.88611328 -367.20446289 788.38111328 -368.01196289 788.89111328 C-370.8556588 790.51608237 -373.68130817 791.58148121 -376.76977539 792.64501953 C-378.91615 793.42819773 -378.91615 793.42819773 -381.63696289 795.39111328 C-383.63696289 796.05777995 -385.63696289 796.72444661 -387.63696289 797.39111328 C-388.62696289 798.05111328 -389.61696289 798.71111328 -390.63696289 799.39111328 C-392.67993164 799.58642578 -392.67993164 799.58642578 -394.82446289 799.51611328 C-396.08258789 799.47486328 -397.34071289 799.43361328 -398.63696289 799.39111328 C-398.96696289 800.38111328 -399.29696289 801.37111328 -399.63696289 802.39111328 C-403.57392918 804.11953751 -407.33892378 804.59944155 -411.58618164 805.04736328 C-414.31264735 805.50437087 -416.73061564 806.58513591 -419.27758789 807.62939453 C-423.40557148 808.96210446 -427.68705153 809.3999653 -431.97680664 809.96142578 C-434.5520833 810.11113255 -434.5520833 810.11113255 -435.63696289 811.39111328 C-438.47668824 811.7146263 -441.31770026 811.90415618 -444.16821289 812.10986328 C-446.57832339 812.12496593 -446.57832339 812.12496593 -447.63696289 813.39111328 C-449.4726892 813.4901648 -451.31223864 813.51910535 -453.15063477 813.52050781 C-454.91751648 813.52523605 -454.91751648 813.52523605 -456.72009277 813.53005981 C-458.00234741 813.52803558 -459.28460205 813.52601135 -460.60571289 813.52392578 C-461.91149292 813.52488251 -463.21727295 813.52583923 -464.56262207 813.52682495 C-467.33009011 813.52830161 -470.09752593 813.52614839 -472.86499023 813.52148438 C-476.41958938 813.51578709 -479.97411304 813.51906626 -483.52870941 813.52505684 C-486.90855003 813.52953075 -490.28837013 813.52640214 -493.66821289 813.52392578 C-494.95046753 813.52595001 -496.23272217 813.52797424 -497.55383301 813.53005981 C-498.73175415 813.52690765 -499.90967529 813.52375549 -501.12329102 813.52050781 C-502.16618286 813.51971222 -503.20907471 813.51891663 -504.28356934 813.51809692 C-506.63696289 813.39111328 -506.63696289 813.39111328 -507.63696289 812.39111328 C-508.98443373 812.16036246 -510.34073854 811.97958265 -511.69946289 811.82861328 C-512.99883789 811.68423828 -514.29821289 811.53986328 -515.63696289 811.39111328 C-515.63696289 810.73111328 -515.63696289 810.07111328 -515.63696289 809.39111328 C-516.22864258 809.40271484 -516.82032227 809.41431641 -517.42993164 809.42626953 C-521.63928074 809.47433714 -525.52919619 809.45118211 -529.63696289 808.39111328 C-529.63696289 807.73111328 -529.63696289 807.07111328 -529.63696289 806.39111328 C-530.87446289 806.48392578 -530.87446289 806.48392578 -532.13696289 806.57861328 C-535.79388897 806.38270653 -538.25697438 805.55173963 -541.60180664 804.19189453 C-544.55884807 803.02837535 -547.57144498 802.22135772 -550.63696289 801.39111328 C-550.63696289 800.73111328 -550.63696289 800.07111328 -550.63696289 799.39111328 C-552.21477539 799.48392578 -552.21477539 799.48392578 -553.82446289 799.57861328 C-557.9287764 799.3767618 -559.30310851 798.61368287 -562.63696289 796.39111328 C-564.6214806 795.6796824 -566.61898402 795.00119992 -568.63696289 794.39111328 C-568.63696289 793.73111328 -568.63696289 793.07111328 -568.63696289 792.39111328 C-570.28696289 792.39111328 -571.93696289 792.39111328 -573.63696289 792.39111328 C-573.63696289 791.73111328 -573.63696289 791.07111328 -573.63696289 790.39111328 C-574.29696289 790.32923828 -574.95696289 790.26736328 -575.63696289 790.20361328 C-579.19769923 789.23924719 -581.72500604 787.58510775 -584.76977539 785.54736328 C-586.73780198 784.22938551 -586.73780198 784.22938551 -589.63696289 783.39111328 C-589.63696289 782.73111328 -589.63696289 782.07111328 -589.63696289 781.39111328 C-590.42071289 781.08173828 -591.20446289 780.77236328 -592.01196289 780.45361328 C-594.63696289 779.39111328 -594.63696289 779.39111328 -596.63696289 778.39111328 C-596.63696289 777.73111328 -596.63696289 777.07111328 -596.63696289 776.39111328 C-597.42071289 776.08173828 -598.20446289 775.77236328 -599.01196289 775.45361328 C-601.63696289 774.39111328 -601.63696289 774.39111328 -603.63696289 773.39111328 C-604.13196289 771.90611328 -604.13196289 771.90611328 -604.63696289 770.39111328 C-606.65204647 769.65787532 -606.65204647 769.65787532 -608.63696289 769.39111328 C-608.63696289 768.73111328 -608.63696289 768.07111328 -608.63696289 767.39111328 C-609.29696289 767.39111328 -609.95696289 767.39111328 -610.63696289 767.39111328 C-610.63696289 766.73111328 -610.63696289 766.07111328 -610.63696289 765.39111328 C-611.29696289 765.39111328 -611.95696289 765.39111328 -612.63696289 765.39111328 C-612.63696289 764.40111328 -612.63696289 763.41111328 -612.63696289 762.39111328 C-613.62696289 762.39111328 -614.61696289 762.39111328 -615.63696289 762.39111328 C-615.63696289 761.73111328 -615.63696289 761.07111328 -615.63696289 760.39111328 C-616.29696289 760.39111328 -616.95696289 760.39111328 -617.63696289 760.39111328 C-617.63696289 759.73111328 -617.63696289 759.07111328 -617.63696289 758.39111328 C-618.29696289 758.39111328 -618.95696289 758.39111328 -619.63696289 758.39111328 C-619.63696289 757.40111328 -619.63696289 756.41111328 -619.63696289 755.39111328 C-621.28696289 754.73111328 -622.93696289 754.07111328 -624.63696289 753.39111328 C-624.63696289 752.73111328 -624.63696289 752.07111328 -624.63696289 751.39111328 C-625.29696289 751.39111328 -625.95696289 751.39111328 -626.63696289 751.39111328 C-627.13196289 748.91611328 -627.13196289 748.91611328 -627.63696289 746.39111328 C-628.29696289 746.39111328 -628.95696289 746.39111328 -629.63696289 746.39111328 C-629.63696289 745.73111328 -629.63696289 745.07111328 -629.63696289 744.39111328 C-630.29696289 744.39111328 -630.95696289 744.39111328 -631.63696289 744.39111328 C-631.63696289 743.40111328 -631.63696289 742.41111328 -631.63696289 741.39111328 C-632.29696289 741.39111328 -632.95696289 741.39111328 -633.63696289 741.39111328 C-634.62449353 739.66670963 -635.60165095 737.93636302 -636.57446289 736.20361328 C-637.11973633 735.24068359 -637.66500977 734.27775391 -638.22680664 733.28564453 C-639.54275622 730.58448486 -640.20998176 728.34755227 -640.63696289 725.39111328 C-641.29696289 725.39111328 -641.95696289 725.39111328 -642.63696289 725.39111328 C-643.61196886 722.46609536 -644.58608931 719.54083735 -645.55493164 716.61376953 C-646.18406723 714.73999026 -646.82598732 712.87022697 -647.50024414 711.01220703 C-652.78803613 696.28774011 -652.74477286 680.18077888 -652.89732361 664.71672249 C-652.91884341 662.55029409 -652.94580234 660.38398736 -652.97399902 658.21763611 C-653.0428537 652.84994895 -653.1032209 647.4821744 -653.1630249 642.11437988 C-653.2141831 637.54496344 -653.26901174 632.97562054 -653.32884216 628.40630913 C-653.3551481 626.28432857 -653.37610452 624.16233952 -653.39685059 622.04029846 C-653.41356812 620.74462448 -653.43028564 619.4489505 -653.44750977 618.11401367 C-653.46630188 616.41529869 -653.46630188 616.41529869 -653.48547363 614.68226624 C-653.58160966 611.37091047 -653.58160966 611.37091047 -654.13774109 608.04524231 C-654.72648046 603.73587599 -654.79989977 599.54533183 -654.81396484 595.20214844 C-654.82382164 593.86167702 -654.82382164 593.86167702 -654.83387756 592.49412537 C-654.85348293 589.55614114 -654.86524221 586.61820763 -654.87524414 583.68017578 C-654.87931967 582.67180035 -654.8833952 581.66342491 -654.88759422 580.62449265 C-654.90839677 575.29084228 -654.92272566 569.95721722 -654.93212891 564.62353516 C-654.94320397 559.13040566 -654.97763346 553.63768 -655.01730061 548.14469337 C-655.04349472 543.90490996 -655.05182305 539.66522266 -655.05541039 535.42536545 C-655.06026607 533.40086503 -655.07185087 531.37636861 -655.09044838 529.35194778 C-655.11490798 526.51393075 -655.1138628 523.67695829 -655.10693359 520.83886719 C-655.12614868 519.59947136 -655.12614868 519.59947136 -655.14575195 518.33503723 C-655.08171031 511.09721646 -653.0330099 505.09434581 -648.19946289 499.64111328 C-647.35383789 498.89861328 -646.50821289 498.15611328 -645.63696289 497.39111328 C-644.75008789 496.46298828 -643.86321289 495.53486328 -642.94946289 494.57861328 C-640.63696289 492.39111328 -640.63696289 492.39111328 -638.63696289 492.39111328 C-638.63696289 491.73111328 -638.63696289 491.07111328 -638.63696289 490.39111328 C-637.16821289 488.91064453 -637.16821289 488.91064453 -635.13696289 487.20361328 C-634.4112207 486.58615234 -633.68547852 485.96869141 -632.93774414 485.33251953 C-632.17848633 484.69185547 -631.41922852 484.05119141 -630.63696289 483.39111328 C-629.1965579 482.14446188 -627.75892204 480.8946017 -626.32446289 479.64111328 C-625.68895508 479.08939453 -625.05344727 478.53767578 -624.39868164 477.96923828 C-622.61679788 476.41767582 -622.61679788 476.41767582 -621.03149414 474.68798828 C-619.63696289 473.39111328 -619.63696289 473.39111328 -617.63696289 473.39111328 C-617.38301758 472.79943359 -617.12907227 472.20775391 -616.86743164 471.59814453 C-615.50143077 469.14801598 -614.10760078 467.85515508 -611.94946289 466.07861328 C-609.22511125 463.77641343 -606.63034418 461.44181368 -604.13696289 458.89111328 C-601.61481112 456.34003775 -599.04456989 453.86388824 -596.38696289 451.45361328 C-595.74243164 450.86708984 -595.09790039 450.28056641 -594.43383789 449.67626953 C-592.63696289 448.39111328 -592.63696289 448.39111328 -589.63696289 448.39111328 C-589.63696289 447.73111328 -589.63696289 447.07111328 -589.63696289 446.39111328 C-588.97696289 446.39111328 -588.31696289 446.39111328 -587.63696289 446.39111328 C-587.36883789 445.75173828 -587.10071289 445.11236328 -586.82446289 444.45361328 C-585.63696289 442.39111328 -585.63696289 442.39111328 -582.63696289 441.39111328 C-582.63696289 440.73111328 -582.63696289 440.07111328 -582.63696289 439.39111328 C-581.97696289 439.39111328 -581.31696289 439.39111328 -580.63696289 439.39111328 C-580.63696289 438.73111328 -580.63696289 438.07111328 -580.63696289 437.39111328 C-579.97696289 437.39111328 -579.31696289 437.39111328 -578.63696289 437.39111328 C-578.63696289 436.73111328 -578.63696289 436.07111328 -578.63696289 435.39111328 C-577.80165039 435.05080078 -577.80165039 435.05080078 -576.94946289 434.70361328 C-573.33123066 432.65002202 -570.76403512 429.60167234 -567.94946289 426.57861328 C-566.63696289 425.39111328 -566.63696289 425.39111328 -564.63696289 425.39111328 C-564.38946289 424.80845703 -564.14196289 424.22580078 -563.88696289 423.62548828 C-562.45170843 421.05997093 -560.86033276 419.5538653 -558.63696289 417.64111328 C-557.93571289 417.02751953 -557.23446289 416.41392578 -556.51196289 415.78173828 C-554.63696289 414.39111328 -554.63696289 414.39111328 -552.63696289 414.39111328 C-552.63696289 413.73111328 -552.63696289 413.07111328 -552.63696289 412.39111328 C-551.97696289 412.39111328 -551.31696289 412.39111328 -550.63696289 412.39111328 C-550.63696289 411.73111328 -550.63696289 411.07111328 -550.63696289 410.39111328 C-549.97696289 410.39111328 -549.31696289 410.39111328 -548.63696289 410.39111328 C-548.30696289 409.40111328 -547.97696289 408.41111328 -547.63696289 407.39111328 C-546.97696289 407.39111328 -546.31696289 407.39111328 -545.63696289 407.39111328 C-545.63696289 406.73111328 -545.63696289 406.07111328 -545.63696289 405.39111328 C-544.17602539 403.88330078 -544.17602539 403.88330078 -542.26196289 402.26611328 C-541.32223633 401.45787109 -541.32223633 401.45787109 -540.36352539 400.63330078 C-538.63696289 399.39111328 -538.63696289 399.39111328 -536.63696289 399.39111328 C-536.63696289 398.73111328 -536.63696289 398.07111328 -536.63696289 397.39111328 C-535.97696289 397.39111328 -535.31696289 397.39111328 -534.63696289 397.39111328 C-534.63696289 396.73111328 -534.63696289 396.07111328 -534.63696289 395.39111328 C-533.85321289 395.14361328 -533.06946289 394.89611328 -532.26196289 394.64111328 C-529.54045191 393.68820354 -529.54045191 393.68820354 -528.80102539 391.58251953 C-527.21364194 388.59419029 -525.0598548 387.13440309 -522.38696289 385.07861328 C-518.96725884 382.37414145 -515.92867173 379.79385438 -513.19946289 376.39111328 C-510.63722639 373.39142176 -510.2251561 373.00057285 -506.63696289 372.39111328 C-506.63696289 371.73111328 -506.63696289 371.07111328 -506.63696289 370.39111328 C-505.97696289 370.39111328 -505.31696289 370.39111328 -504.63696289 370.39111328 C-504.36883789 369.75173828 -504.10071289 369.11236328 -503.82446289 368.45361328 C-502.63696289 366.39111328 -502.63696289 366.39111328 -499.63696289 365.39111328 C-499.63696289 364.73111328 -499.63696289 364.07111328 -499.63696289 363.39111328 C-498.17602539 361.88330078 -498.17602539 361.88330078 -496.26196289 360.26611328 C-495.63547852 359.72728516 -495.00899414 359.18845703 -494.36352539 358.63330078 C-492.63696289 357.39111328 -492.63696289 357.39111328 -490.63696289 357.39111328 C-490.36883789 356.75173828 -490.10071289 356.11236328 -489.82446289 355.45361328 C-488.63696289 353.39111328 -488.63696289 353.39111328 -485.63696289 352.39111328 C-485.63696289 351.73111328 -485.63696289 351.07111328 -485.63696289 350.39111328 C-482.17542443 347.39111328 -482.17542443 347.39111328 -479.63696289 347.39111328 C-479.30696289 346.40111328 -478.97696289 345.41111328 -478.63696289 344.39111328 C-477.97696289 344.39111328 -477.31696289 344.39111328 -476.63696289 344.39111328 C-476.63696289 343.73111328 -476.63696289 343.07111328 -476.63696289 342.39111328 C-475.06274414 340.80517578 -475.06274414 340.80517578 -472.94946289 339.01611328 C-472.21727539 338.39220703 -471.48508789 337.76830078 -470.73071289 337.12548828 C-469.15341003 335.81891651 -467.55608201 334.53646328 -465.94946289 333.26611328 C-462.68826138 330.62189584 -459.807724 327.64859744 -456.94946289 324.57861328 C-455.63696289 323.39111328 -455.63696289 323.39111328 -453.63696289 323.39111328 C-453.38043945 322.79814453 -453.12391602 322.20517578 -452.85961914 321.59423828 C-451.5207735 319.18174964 -450.18733674 317.89970728 -448.07446289 316.14111328 C-444.13247705 312.81889121 -440.31712227 309.38143383 -436.51977539 305.89501953 C-434.63696289 304.39111328 -434.63696289 304.39111328 -432.63696289 304.39111328 C-432.29665039 303.52486328 -432.29665039 303.52486328 -431.94946289 302.64111328 C-430.28848067 299.79371519 -428.32171728 298.27044135 -425.63696289 296.39111328 C-424.97696289 296.39111328 -424.31696289 296.39111328 -423.63696289 296.39111328 C-423.43071289 295.83423828 -423.22446289 295.27736328 -423.01196289 294.70361328 C-421.11801765 291.51834173 -418.52020264 289.68593676 -415.63696289 287.39111328 C-414.63154296 286.39656275 -413.63195045 285.39610072 -412.63696289 284.39111328 C-411.33566208 283.19135134 -410.02249901 282.00436323 -408.69946289 280.82861328 C-408.03043945 280.22919922 -407.36141602 279.62978516 -406.67211914 279.01220703 C-404.73045143 277.46558112 -402.89363301 276.40585756 -400.63696289 275.39111328 C-400.63696289 274.73111328 -400.63696289 274.07111328 -400.63696289 273.39111328 C-399.97696289 273.39111328 -399.31696289 273.39111328 -398.63696289 273.39111328 C-398.30696289 272.40111328 -397.97696289 271.41111328 -397.63696289 270.39111328 C-395.89477539 268.60205078 -395.89477539 268.60205078 -393.76196289 266.76611328 C-392.71395508 265.84958984 -392.71395508 265.84958984 -391.64477539 264.91455078 C-389.63696289 263.39111328 -389.63696289 263.39111328 -386.63696289 262.39111328 C-386.63696289 261.73111328 -386.63696289 261.07111328 -386.63696289 260.39111328 C-385.17602539 258.88330078 -385.17602539 258.88330078 -383.26196289 257.26611328 C-382.63547852 256.72728516 -382.00899414 256.18845703 -381.36352539 255.63330078 C-379.63696289 254.39111328 -379.63696289 254.39111328 -377.63696289 254.39111328 C-377.63696289 253.73111328 -377.63696289 253.07111328 -377.63696289 252.39111328 C-376.17602539 250.88330078 -376.17602539 250.88330078 -374.26196289 249.26611328 C-373.63547852 248.72728516 -373.00899414 248.18845703 -372.36352539 247.63330078 C-370.63696289 246.39111328 -370.63696289 246.39111328 -368.63696289 246.39111328 C-368.36883789 245.75173828 -368.10071289 245.11236328 -367.82446289 244.45361328 C-366.63696289 242.39111328 -366.63696289 242.39111328 -363.63696289 241.39111328 C-363.63696289 240.73111328 -363.63696289 240.07111328 -363.63696289 239.39111328 C-362.97696289 239.39111328 -362.31696289 239.39111328 -361.63696289 239.39111328 C-361.63696289 238.73111328 -361.63696289 238.07111328 -361.63696289 237.39111328 C-360.17602539 235.88330078 -360.17602539 235.88330078 -358.26196289 234.26611328 C-357.63547852 233.72728516 -357.00899414 233.18845703 -356.36352539 232.63330078 C-354.63696289 231.39111328 -354.63696289 231.39111328 -352.63696289 231.39111328 C-352.63696289 230.73111328 -352.63696289 230.07111328 -352.63696289 229.39111328 C-351.06274414 227.80517578 -351.06274414 227.80517578 -348.94946289 226.01611328 C-347.85118164 225.08025391 -347.85118164 225.08025391 -346.73071289 224.12548828 C-345.15341003 222.81891651 -343.55608201 221.53646328 -341.94946289 220.26611328 C-339.49732076 218.35173786 -339.49732076 218.35173786 -337.01196289 215.70361328 C-334.63696289 213.39111328 -334.63696289 213.39111328 -331.63696289 212.39111328 C-331.30696289 211.73111328 -330.97696289 211.07111328 -330.63696289 210.39111328 C-329.63696289 208.39111328 -329.63696289 208.39111328 -326.63696289 207.39111328 C-326.63696289 206.73111328 -326.63696289 206.07111328 -326.63696289 205.39111328 C-325.17602539 203.88330078 -325.17602539 203.88330078 -323.26196289 202.26611328 C-322.63547852 201.72728516 -322.00899414 201.18845703 -321.36352539 200.63330078 C-319.63696289 199.39111328 -319.63696289 199.39111328 -317.63696289 199.39111328 C-317.63696289 198.73111328 -317.63696289 198.07111328 -317.63696289 197.39111328 C-316.97696289 197.39111328 -316.31696289 197.39111328 -315.63696289 197.39111328 C-315.36883789 196.75173828 -315.10071289 196.11236328 -314.82446289 195.45361328 C-313.63696289 193.39111328 -313.63696289 193.39111328 -310.63696289 192.39111328 C-310.63696289 191.73111328 -310.63696289 191.07111328 -310.63696289 190.39111328 C-309.02758789 188.80517578 -309.02758789 188.80517578 -306.88696289 187.01611328 C-304.56792587 185.05353601 -302.38477005 183.13228378 -300.26196289 180.95361328 C-298.63696289 179.39111328 -298.63696289 179.39111328 -296.63696289 179.39111328 C-296.63696289 178.73111328 -296.63696289 178.07111328 -296.63696289 177.39111328 C-295.97696289 177.39111328 -295.31696289 177.39111328 -294.63696289 177.39111328 C-294.63696289 176.73111328 -294.63696289 176.07111328 -294.63696289 175.39111328 C-293.17602539 173.88330078 -293.17602539 173.88330078 -291.26196289 172.26611328 C-290.63547852 171.72728516 -290.00899414 171.18845703 -289.36352539 170.63330078 C-287.63696289 169.39111328 -287.63696289 169.39111328 -285.63696289 169.39111328 C-285.36883789 168.75173828 -285.10071289 168.11236328 -284.82446289 167.45361328 C-283.63696289 165.39111328 -283.63696289 165.39111328 -280.63696289 164.39111328 C-280.63696289 163.73111328 -280.63696289 163.07111328 -280.63696289 162.39111328 C-279.97696289 162.39111328 -279.31696289 162.39111328 -278.63696289 162.39111328 C-278.63696289 161.73111328 -278.63696289 161.07111328 -278.63696289 160.39111328 C-277.06274414 158.80517578 -277.06274414 158.80517578 -274.94946289 157.01611328 C-274.21985352 156.39478516 -273.49024414 155.77345703 -272.73852539 155.13330078 C-270.39432244 153.18996525 -268.01462803 151.29324539 -265.63696289 149.39111328 C-265.08008789 148.81361328 -264.52321289 148.23611328 -263.94946289 147.64111328 C-262.63696289 146.39111328 -262.63696289 146.39111328 -260.63696289 146.39111328 C-260.43071289 145.83423828 -260.22446289 145.27736328 -260.01196289 144.70361328 C-258.06013257 141.42098957 -255.69465295 139.68438082 -252.63696289 137.39111328 C-251.97696289 137.39111328 -251.31696289 137.39111328 -250.63696289 137.39111328 C-250.30696289 136.40111328 -249.97696289 135.41111328 -249.63696289 134.39111328 C-248.07055664 132.99658203 -248.07055664 132.99658203 -246.07446289 131.57861328 C-245.35645508 131.05912109 -244.63844727 130.53962891 -243.89868164 130.00439453 C-243.15231445 129.47201172 -242.40594727 128.93962891 -241.63696289 128.39111328 C-240.21653334 127.35458361 -238.79971295 126.31308565 -237.38696289 125.26611328 C-236.45110352 124.58162109 -236.45110352 124.58162109 -235.49633789 123.88330078 C-233.57654402 122.40186101 -233.57654402 122.40186101 -231.80493164 120.53173828 C-229.11261205 117.87337587 -226.19161067 115.57092197 -223.19946289 113.26611328 C-222.63936523 112.82396484 -222.07926758 112.38181641 -221.50219727 111.92626953 C-218.34647848 109.48859645 -215.4273475 107.65221321 -211.63696289 106.39111328 C-211.63696289 105.73111328 -211.63696289 105.07111328 -211.63696289 104.39111328 C-210.02758789 102.98876953 -210.02758789 102.98876953 -207.88696289 101.45361328 C-206.84282227 100.69757813 -206.84282227 100.69757813 -205.77758789 99.92626953 C-204.71797852 99.16636719 -204.71797852 99.16636719 -203.63696289 98.39111328 C-202.93055664 97.83294922 -202.22415039 97.27478516 -201.49633789 96.69970703 C-199.63696289 95.39111328 -199.63696289 95.39111328 -197.63696289 95.39111328 C-197.63696289 94.73111328 -197.63696289 94.07111328 -197.63696289 93.39111328 C-195.40649414 91.51611328 -195.40649414 91.51611328 -192.44946289 89.39111328 C-191.4865332 88.68986328 -190.52360352 87.98861328 -189.53149414 87.26611328 C-186.93088148 85.58150589 -184.54949758 84.41342893 -181.63696289 83.39111328 C-181.63696289 82.73111328 -181.63696289 82.07111328 -181.63696289 81.39111328 C-180.27368164 80.16455078 -180.27368164 80.16455078 -178.32446289 78.76611328 C-177.24358398 77.98494141 -177.24358398 77.98494141 -176.14086914 77.18798828 C-175.31458008 76.59501953 -174.48829102 76.00205078 -173.63696289 75.39111328 C-172.67661133 74.67439453 -171.71625977 73.95767578 -170.72680664 73.21923828 C-169.7484082 72.49220703 -168.77000977 71.76517578 -167.76196289 71.01611328 C-166.37364258 69.98357422 -166.37364258 69.98357422 -164.95727539 68.93017578 C-162.63696289 67.39111328 -162.63696289 67.39111328 -160.63696289 67.39111328 C-160.63696289 66.73111328 -160.63696289 66.07111328 -160.63696289 65.39111328 C-156.25234751 62.39111328 -156.25234751 62.39111328 -153.63696289 62.39111328 C-153.63696289 61.73111328 -153.63696289 61.07111328 -153.63696289 60.39111328 C-151.62524414 58.80517578 -151.62524414 58.80517578 -148.94946289 57.01611328 C-146.08058893 55.07516607 -143.36803866 53.16796338 -140.69946289 50.95361328 C-138.63696289 49.39111328 -138.63696289 49.39111328 -135.63696289 49.39111328 C-135.63696289 48.73111328 -135.63696289 48.07111328 -135.63696289 47.39111328 C-133.92797852 45.95825195 -133.92797852 45.95825195 -131.54321289 44.30908203 C-130.67696289 43.70644531 -129.81071289 43.10380859 -128.91821289 42.48291016 C-128.00040039 41.85449219 -127.08258789 41.22607422 -126.13696289 40.57861328 C-125.25008789 39.96179688 -124.36321289 39.34498047 -123.44946289 38.70947266 C-108.53663744 28.39111328 -108.53663744 28.39111328 -105.63696289 28.39111328 C-105.63696289 27.73111328 -105.63696289 27.07111328 -105.63696289 26.39111328 C-103.98696289 26.39111328 -102.33696289 26.39111328 -100.63696289 26.39111328 C-100.30696289 25.40111328 -99.97696289 24.41111328 -99.63696289 23.39111328 C-90.44166765 17.41347791 -80.14647616 13.42041395 -69.74243164 10.10205078 C-67.58471415 9.40618999 -67.58471415 9.40618999 -65.35961914 8.40283203 C-61.93826438 7.13148213 -58.46502338 6.48010984 -54.88696289 5.82861328 C-50.39726998 5.35192605 -50.39726998 5.35192605 -46.63696289 3.39111328 C-31.21145462 0.02437764 -15.72322876 -0.08062104 0 0 Z " fill="#359AD8" transform="translate(810.636962890625,147.60888671875)"/>
<path d="M0 0 C1.4616156 -0.00472824 1.4616156 -0.00472824 2.95275879 -0.009552 C4.00797729 -0.00752777 5.0631958 -0.00550354 6.15039062 -0.00341797 C7.23042358 -0.00437469 8.31045654 -0.00533142 9.42321777 -0.00631714 C11.70971739 -0.0069985 13.99621893 -0.00514724 16.28271484 -0.00097656 C19.79203619 0.00437227 23.30122954 -0.00092305 26.81054688 -0.00732422 C29.02799508 -0.00666343 31.2454432 -0.00538225 33.46289062 -0.00341797 C34.51810913 -0.0054422 35.57332764 -0.00746643 36.66052246 -0.009552 C37.63493286 -0.00639984 38.60934326 -0.00324768 39.61328125 0 C40.47328735 0.00079559 41.33329346 0.00159119 42.21936035 0.00241089 C44.30664062 0.12939453 44.30664062 0.12939453 46.30664062 1.12939453 C49.15871841 1.441951 52.01160916 1.63976935 54.87304688 1.84814453 C57.30664062 2.12939453 57.30664062 2.12939453 58.30664062 3.12939453 C60.13857241 3.23931044 61.97251527 3.31583573 63.80664062 3.37939453 C69.53939139 3.77170198 74.7053177 4.86726727 80.18164062 6.50439453 C80.88224609 6.71354492 81.58285156 6.92269531 82.3046875 7.13818359 C86.78147724 8.53053748 91.01144128 10.25512573 95.30664062 12.12939453 C98.94842179 13.24044641 102.60452022 14.24088563 106.30664062 15.12939453 C106.30664062 15.78939453 106.30664062 16.44939453 106.30664062 17.12939453 C106.96664063 17.21189453 107.62664062 17.29439453 108.30664062 17.37939453 C112.29703226 18.37699244 115.69213705 20.20106136 119.30664062 22.12939453 C119.30664062 22.78939453 119.30664062 23.44939453 119.30664062 24.12939453 C119.90476562 24.27376953 120.50289063 24.41814453 121.11914062 24.56689453 C122.86814467 25.01663843 124.59341085 25.55831794 126.30664062 26.12939453 C126.30664062 26.78939453 126.30664062 27.44939453 126.30664062 28.12939453 C126.92539062 28.27376953 127.54414063 28.41814453 128.18164062 28.56689453 C130.30664062 29.12939453 130.30664062 29.12939453 132.30664062 30.12939453 C132.30664062 30.78939453 132.30664062 31.44939453 132.30664062 32.12939453 C133.04914063 32.39751953 133.79164063 32.66564453 134.55664062 32.94189453 C137.19726011 34.08216204 139.16216907 35.22319759 141.30664062 37.12939453 C141.30664062 37.78939453 141.30664062 38.44939453 141.30664062 39.12939453 C141.96664063 39.12939453 142.62664062 39.12939453 143.30664062 39.12939453 C143.30664062 39.78939453 143.30664062 40.44939453 143.30664062 41.12939453 C144.02851563 41.35626953 144.75039063 41.58314453 145.49414062 41.81689453 C150.94974482 44.36284315 154.66526139 49.44762123 158.30664062 54.12939453 C158.30664062 54.78939453 158.30664062 55.44939453 158.30664062 56.12939453 C158.96664063 56.12939453 159.62664062 56.12939453 160.30664062 56.12939453 C160.30664062 56.78939453 160.30664062 57.44939453 160.30664062 58.12939453 C160.96664063 58.12939453 161.62664062 58.12939453 162.30664062 58.12939453 C175.30664062 73.74087356 175.30664062 73.74087356 175.30664062 80.12939453 C175.96664063 80.12939453 176.62664062 80.12939453 177.30664062 80.12939453 C177.30664062 81.44939453 177.30664062 82.76939453 177.30664062 84.12939453 C177.96664063 84.12939453 178.62664062 84.12939453 179.30664062 84.12939453 C179.56058594 84.77005859 179.81453125 85.41072266 180.07617188 86.07080078 C180.42035156 86.93576172 180.76453125 87.80072266 181.11914062 88.69189453 C181.48523438 89.61486328 181.85132813 90.53783203 182.22851562 91.48876953 C183.04907449 93.49854415 183.94302322 95.47852564 184.86914062 97.44189453 C186.65355574 102.01930722 187.64148435 106.6347321 188.65820312 111.43408203 C189.03506399 114.03184946 189.03506399 114.03184946 190.30664062 115.12939453 C190.63997396 117.46272786 190.97330729 119.7960612 191.30664062 122.12939453 C191.63664062 122.45939453 191.96664063 122.78939453 192.30664062 123.12939453 C193.46008032 130.49859259 194.12540427 136.56112105 190.30664062 143.12939453 C189.64664062 143.12939453 188.98664063 143.12939453 188.30664062 143.12939453 C188.05527344 143.71849609 187.80390625 144.30759766 187.54492188 144.91455078 C186.15208662 147.40583656 184.68578343 148.75239867 182.49414062 150.56689453 C180.02229615 152.64844778 177.65952535 154.72595297 175.43164062 157.06689453 C173.30664062 159.12939453 173.30664062 159.12939453 171.30664062 159.12939453 C171.03851563 159.76876953 170.77039063 160.40814453 170.49414062 161.06689453 C169.30664062 163.12939453 169.30664062 163.12939453 166.30664062 164.12939453 C166.30664062 164.78939453 166.30664062 165.44939453 166.30664062 166.12939453 C165.64664062 166.12939453 164.98664063 166.12939453 164.30664062 166.12939453 C164.30664062 166.78939453 164.30664062 167.44939453 164.30664062 168.12939453 C163.64664062 168.12939453 162.98664063 168.12939453 162.30664062 168.12939453 C162.30664062 168.78939453 162.30664062 169.44939453 162.30664062 170.12939453 C158.58718163 174.04267149 154.58803742 177.64400168 149.30664062 179.12939453 C149.30664062 179.78939453 149.30664062 180.44939453 149.30664062 181.12939453 C148.64664062 181.12939453 147.98664063 181.12939453 147.30664062 181.12939453 C147.30664062 181.78939453 147.30664062 182.44939453 147.30664062 183.12939453 C145.80273438 184.64501953 145.80273438 184.64501953 143.74414062 186.37939453 C143.01839844 186.99427734 142.29265625 187.60916016 141.54492188 188.24267578 C140.80628906 188.86529297 140.06765625 189.48791016 139.30664062 190.12939453 C138.64019531 190.72107422 137.97375 191.31275391 137.28710938 191.92236328 C136.67480469 192.46505859 136.0625 193.00775391 135.43164062 193.56689453 C134.87734375 194.06060547 134.32304687 194.55431641 133.75195312 195.06298828 C132.30664062 196.12939453 132.30664062 196.12939453 130.30664062 196.12939453 C129.64664062 197.44939453 128.98664063 198.76939453 128.30664062 200.12939453 C127.64664062 200.12939453 126.98664063 200.12939453 126.30664062 200.12939453 C126.30664062 200.78939453 126.30664062 201.44939453 126.30664062 202.12939453 C125.64664062 202.12939453 124.98664063 202.12939453 124.30664062 202.12939453 C124.30664062 202.78939453 124.30664062 203.44939453 124.30664062 204.12939453 C122.66210938 205.82080078 122.66210938 205.82080078 120.49414062 207.69189453 C119.78644531 208.31193359 119.07875 208.93197266 118.34960938 209.57080078 C116.30664062 211.12939453 116.30664062 211.12939453 113.30664062 212.12939453 C112.97664063 213.11939453 112.64664062 214.10939453 112.30664062 215.12939453 C110.88085938 216.56689453 110.88085938 216.56689453 108.99414062 218.12939453 C106.34557896 220.36531797 103.74529644 222.63061812 101.21289062 224.99658203 C100.68091064 225.49287109 100.14893066 225.98916016 99.60083008 226.50048828 C98.54157757 227.49197825 97.48534432 228.48670511 96.43237305 229.48486328 C94.05505629 231.69885888 92.42979418 233.08834335 89.30664062 234.12939453 C88.97664062 235.11939453 88.64664063 236.10939453 88.30664062 237.12939453 C83.84949777 241.12939453 83.84949777 241.12939453 81.30664062 241.12939453 C80.97664062 242.11939453 80.64664063 243.10939453 80.30664062 244.12939453 C78.69504434 245.58846474 77.01689395 246.97482074 75.30664062 248.31689453 C67.65466949 254.42853381 60.29774887 260.76857456 53.61914062 267.94189453 C52.30664062 269.12939453 52.30664062 269.12939453 50.30664062 269.12939453 C50.30664062 269.78939453 50.30664062 270.44939453 50.30664062 271.12939453 C49.64664063 271.12939453 48.98664063 271.12939453 48.30664062 271.12939453 C48.30664062 271.78939453 48.30664062 272.44939453 48.30664062 273.12939453 C47.64664063 273.12939453 46.98664063 273.12939453 46.30664062 273.12939453 C46.30664062 273.78939453 46.30664062 274.44939453 46.30664062 275.12939453 C44.61389778 276.6937224 42.8509421 278.18268025 41.05664062 279.62939453 C40.08210937 280.42345703 39.10757813 281.21751953 38.10351562 282.03564453 C35.85769301 283.71687487 33.86006033 285.01075352 31.30664062 286.12939453 C31.30664062 287.11939453 31.30664062 288.10939453 31.30664062 289.12939453 C27.97330729 292.12939453 27.97330729 292.12939453 25.30664062 292.12939453 C25.30664062 292.78939453 25.30664062 293.44939453 25.30664062 294.12939453 C20.83605239 298.12939453 20.83605239 298.12939453 18.30664062 298.12939453 C18.30664062 298.78939453 18.30664062 299.44939453 18.30664062 300.12939453 C17.64664063 300.12939453 16.98664063 300.12939453 16.30664062 300.12939453 C15.97664062 301.11939453 15.64664063 302.10939453 15.30664062 303.12939453 C13.63476562 304.81298828 13.63476562 304.81298828 11.55664062 306.56689453 C10.83863281 307.17791016 10.120625 307.78892578 9.38085938 308.41845703 C7.72822521 309.78164679 6.05243362 311.11674898 4.36914062 312.44189453 C2.21683188 313.96813211 2.21683188 313.96813211 1.30664062 316.12939453 C0.64664063 316.12939453 -0.01335937 316.12939453 -0.69335938 316.12939453 C-0.69335938 316.78939453 -0.69335938 317.44939453 -0.69335938 318.12939453 C-2.42727889 319.73573468 -4.23145037 321.26692323 -6.06835938 322.75439453 C-7.06609375 323.57166016 -8.06382812 324.38892578 -9.09179688 325.23095703 C-11.69335938 327.12939453 -11.69335938 327.12939453 -13.69335938 327.12939453 C-14.35335937 328.44939453 -15.01335937 329.76939453 -15.69335938 331.12939453 C-16.35335937 331.12939453 -17.01335937 331.12939453 -17.69335938 331.12939453 C-17.69335938 331.78939453 -17.69335938 332.44939453 -17.69335938 333.12939453 C-19.19726562 334.64501953 -19.19726562 334.64501953 -21.25585938 336.37939453 C-22.35027344 337.31138672 -22.35027344 337.31138672 -23.46679688 338.26220703 C-24.2015625 338.87837891 -24.93632812 339.49455078 -25.69335938 340.12939453 C-30.49947668 344.18623157 -30.49947668 344.18623157 -35.06835938 348.50439453 C-38.06638225 351.5024174 -41.21944315 354.27893248 -44.41210938 357.06689453 C-46.02435447 358.52454078 -47.59396855 360.0300037 -49.13085938 361.56689453 C-52.62340612 365.05944127 -56.30211728 368.32827805 -59.97460938 371.62939453 C-62.62153117 374.0633456 -65.15517697 376.58299794 -67.69335938 379.12939453 C-69.05383608 380.39518604 -70.42767572 381.64686706 -71.81835938 382.87939453 C-72.4809375 383.47236328 -73.14351563 384.06533203 -73.82617188 384.67626953 C-75.69335938 386.12939453 -75.69335938 386.12939453 -78.69335938 387.12939453 C-78.97824219 387.72107422 -79.263125 388.31275391 -79.55664062 388.92236328 C-81.10422366 391.92712072 -83.22061723 393.37607891 -85.88085938 395.44189453 C-89.85053553 398.60006137 -93.50593448 401.81726833 -97.02929688 405.45751953 C-99.4174432 407.85687781 -101.97165312 410.04326852 -104.53320312 412.25439453 C-106.90290811 414.31128132 -109.23763194 416.40345712 -111.56835938 418.50439453 C-112.81939453 419.62974609 -112.81939453 419.62974609 -114.09570312 420.77783203 C-115.88721474 422.39962149 -117.67061035 424.03040607 -119.44726562 425.66845703 C-120.33285156 426.48056641 -121.2184375 427.29267578 -122.13085938 428.12939453 C-122.93394531 428.87189453 -123.73703125 429.61439453 -124.56445312 430.37939453 C-126.69335938 432.12939453 -126.69335938 432.12939453 -129.69335938 433.12939453 C-130.3929227 434.44576582 -131.05550611 435.78203956 -131.69335938 437.12939453 C-134.0587326 439.89010091 -136.69724277 442.36293231 -139.31835938 444.87939453 C-140.00542969 445.57677734 -140.6925 446.27416016 -141.40039062 446.99267578 C-144.88493749 450.3333952 -147.23385885 452.57812734 -152.21679688 452.58251953 C-153.3640625 452.43298828 -154.51132813 452.28345703 -155.69335938 452.12939453 C-155.69335938 450.14939453 -155.69335938 448.16939453 -155.69335938 446.12939453 C-156.35335937 446.12939453 -157.01335937 446.12939453 -157.69335938 446.12939453 C-157.71673636 428.64847772 -157.73436213 411.1675658 -157.74517155 393.68663692 C-157.7503243 385.56965042 -157.75734756 377.45267363 -157.76879883 369.33569336 C-157.77877684 362.25961649 -157.78522023 355.18354666 -157.78744787 348.10746294 C-157.78874968 344.36195126 -157.791802 340.61645973 -157.79908943 336.87095451 C-157.80716523 332.68617744 -157.8073485 328.50143523 -157.80688477 324.31665039 C-157.81048004 323.07946762 -157.81407532 321.84228485 -157.81777954 320.56761169 C-157.81640488 319.42207825 -157.81503021 318.2765448 -157.81361389 317.09629822 C-157.81453568 316.10721435 -157.81545748 315.11813047 -157.8164072 314.09907436 C-157.69335938 311.12939453 -157.69335938 311.12939453 -157.19531155 307.72862911 C-156.67045332 303.96514729 -156.55696002 300.37378328 -156.54187012 296.57473755 C-156.53763771 295.84667337 -156.53340529 295.1186092 -156.52904463 294.36848247 C-156.5161032 291.9464991 -156.51001378 289.52454856 -156.50390625 287.10253906 C-156.49595754 285.35930687 -156.48756909 283.61607664 -156.47877502 281.87284851 C-156.4607652 278.12862851 -156.44573337 274.38441268 -156.43299866 270.64017105 C-156.41274118 264.72483798 -156.38509725 258.80955352 -156.35632324 252.89425659 C-156.29121085 239.27858809 -156.23562451 225.66288389 -156.180336 212.04717255 C-156.12952365 199.55063547 -156.07671379 187.05411626 -156.01581049 174.55762374 C-155.98740575 168.67126937 -155.96383142 162.784921 -155.9438858 156.89853215 C-155.93054214 153.24817246 -155.91312875 149.59784062 -155.89457512 145.94750404 C-155.88679079 144.24828988 -155.88073369 142.54906684 -155.87648201 140.84984016 C-155.87047541 138.54056205 -155.85844765 136.23139362 -155.84484863 133.92214966 C-155.8396949 132.62690432 -155.83454117 131.33165897 -155.82923126 129.99716377 C-155.69335938 127.12939453 -155.69335938 127.12939453 -154.69335938 126.12939453 C-154.48560377 124.46734966 -154.32617683 122.79909962 -154.19335938 121.12939453 C-153.80447049 116.24050564 -153.80447049 116.24050564 -152.69335938 115.12939453 C-152.58545409 113.67267321 -152.50780751 112.21368442 -152.44335938 110.75439453 C-151.89975149 104.5519177 -149.50445605 99.61147091 -146.69335938 94.12939453 C-146.11908203 92.98083984 -146.11908203 92.98083984 -145.53320312 91.80908203 C-145.25605469 91.25478516 -144.97890625 90.70048828 -144.69335938 90.12939453 C-144.03335938 90.12939453 -143.37335938 90.12939453 -142.69335938 90.12939453 C-142.75523437 88.98470703 -142.75523437 88.98470703 -142.81835938 87.81689453 C-142.69335938 85.12939453 -142.69335938 85.12939453 -140.69335938 82.12939453 C-140.03335938 82.12939453 -139.37335938 82.12939453 -138.69335938 82.12939453 C-138.59023437 81.42814453 -138.48710937 80.72689453 -138.38085938 80.00439453 C-137.59976935 76.73801806 -136.27277194 74.08220933 -134.69335938 71.12939453 C-134.03335938 71.12939453 -133.37335938 71.12939453 -132.69335938 71.12939453 C-132.42523438 70.38689453 -132.15710938 69.64439453 -131.88085938 68.87939453 C-130.74059187 66.23877504 -129.59955632 64.27386609 -127.69335938 62.12939453 C-127.03335938 62.12939453 -126.37335938 62.12939453 -125.69335938 62.12939453 C-125.47679687 61.42427734 -125.26023438 60.71916016 -125.03710938 59.99267578 C-123.3661336 56.43213729 -120.97944668 54.01299194 -118.19335938 51.31689453 C-117.69449219 50.81480469 -117.195625 50.31271484 -116.68164062 49.79541016 C-112.96075946 46.12939453 -112.96075946 46.12939453 -110.69335938 46.12939453 C-110.36335938 45.13939453 -110.03335938 44.14939453 -109.69335938 43.12939453 C-107.13085938 41.94189453 -107.13085938 41.94189453 -104.69335938 41.12939453 C-104.69335938 40.46939453 -104.69335938 39.80939453 -104.69335938 39.12939453 C-102.13189367 36.83290804 -101.21368365 36.12939453 -97.69335938 36.12939453 C-97.69335938 35.46939453 -97.69335938 34.80939453 -97.69335938 34.12939453 C-97.03335938 34.12939453 -96.37335938 34.12939453 -95.69335938 34.12939453 C-95.69335938 33.46939453 -95.69335938 32.80939453 -95.69335938 32.12939453 C-94.37335938 32.12939453 -93.05335938 32.12939453 -91.69335938 32.12939453 C-91.69335938 31.46939453 -91.69335938 30.80939453 -91.69335938 30.12939453 C-88.69335938 28.12939453 -88.69335938 28.12939453 -86.13085938 27.44189453 C-82.81725949 26.17670185 -80.65966237 24.7694064 -77.81835938 22.69189453 C-73.51622066 19.56718325 -69.70551139 17.82842911 -64.69335938 16.12939453 C-63.84773438 15.57251953 -63.00210938 15.01564453 -62.13085938 14.44189453 C-58.89428961 12.6991262 -56.30928185 12.91669321 -52.69335938 13.12939453 C-52.69335938 12.46939453 -52.69335938 11.80939453 -52.69335938 11.12939453 C-51.85933594 10.87544922 -51.0253125 10.62150391 -50.16601562 10.35986328 C-49.04066406 10.01568359 -47.9153125 9.67150391 -46.75585938 9.31689453 C-45.56347656 8.95337891 -44.37109375 8.58986328 -43.14257812 8.21533203 C-40.41610745 7.35694149 -37.74912496 6.42826001 -35.06835938 5.44189453 C-30.75428127 3.96118127 -26.51443771 3.6082768 -21.97851562 3.34033203 C-19.66435824 3.26618871 -19.66435824 3.26618871 -17.69335938 2.12939453 C-14.87392722 1.81612429 -12.05357856 1.61909489 -9.22460938 1.41064453 C-5.88477124 1.03955141 -3.47489584 0.00321463 0 0 Z " fill="#3CBE81" transform="translate(302.693359375,149.87060546875)"/>
<path d="M0 0 C0 0.66 0 1.32 0 2 C-0.99 2.495 -0.99 2.495 -2 3 C-3.0409066 4.64142963 -4.04504326 6.30712215 -5 8 C-5.99 7.67 -6.98 7.34 -8 7 C-8 7.66 -8 8.32 -8 9 C-8.99 8.67 -9.98 8.34 -11 8 C-10.34 8 -9.68 8 -9 8 C-9 7.34 -9 6.68 -9 6 C-7.5390625 4.4921875 -7.5390625 4.4921875 -5.625 2.875 C-4.99851562 2.33617187 -4.37203125 1.79734375 -3.7265625 1.2421875 C-2 0 -2 0 0 0 Z " fill="#23B7E3" transform="translate(433,402)"/>
<path d="M0 0 C0.66 0.33 1.32 0.66 2 1 C0.71480435 3.86697492 -0.57129254 5.97607712 -3 8 C-3.66 8 -4.32 8 -5 8 C-4.45773019 4.20411134 -2.79872437 2.52788007 0 0 Z " fill="#2897C9" transform="translate(375,453)"/>
<path d="M0 0 C0.75 1.75 0.75 1.75 1 4 C-0.8125 6.25 -0.8125 6.25 -3 8 C-3.66 8 -4.32 8 -5 8 C-5.33 7.01 -5.66 6.02 -6 5 C-4.68 4.67 -3.36 4.34 -2 4 C-2 3.34 -2 2.68 -2 2 C-1.34 2 -0.68 2 0 2 C0 1.34 0 0.68 0 0 Z " fill="#2CA6E0" transform="translate(495,343)"/>
<path d="M0 0 C3.32901247 2.21934164 3.75023244 3.34683329 5 7 C1.125 6.125 1.125 6.125 0 5 C-0.04063832 3.33382885 -0.042721 1.66611905 0 0 Z " fill="#31BAEC" transform="translate(982,243)"/>
<path d="M0 0 C0 3 0 3 -1 6 C-2.65 6.33 -4.3 6.66 -6 7 C-6 6.34 -6 5.68 -6 5 C-4.04072937 3.2856382 -2.04119788 1.61594832 0 0 Z " fill="#2AC1EE" transform="translate(271,548)"/>
<path d="M0 0 C3.60654039 2.40436026 3.85452932 3.94679607 5 8 C3.0625 7.375 3.0625 7.375 1 6 C0.25 2.875 0.25 2.875 0 0 Z " fill="#2FCDAB" transform="translate(482,239)"/>
<path d="M0 0 C0.66 0 1.32 0 2 0 C0.60667426 3.36720387 -0.9789286 4.9859524 -4 7 C-2.79618552 4.50638429 -1.54571278 2.31856917 0 0 Z " fill="#1A8FAA" transform="translate(299,495)"/>
<path d="M0 0 C0.66 0.66 1.32 1.32 2 2 C0.02 2.66 -1.96 3.32 -4 4 C-4 3.34 -4 2.68 -4 2 C-2.68 1.34 -1.36 0.68 0 0 Z " fill="#47A4EB" transform="translate(170,613)"/>
<path d="M0 0 C0 0.66 0 1.32 0 2 C-0.66 2 -1.32 2 -2 2 C-2 2.66 -2 3.32 -2 4 C-2.99 3.67 -3.98 3.34 -5 3 C-2.25 0 -2.25 0 0 0 Z " fill="#3FCCE5" transform="translate(306,491)"/>
<path d="M0 0 C0.99 0.495 0.99 0.495 2 1 C1.01 1.495 1.01 1.495 0 2 C0 1.34 0 0.68 0 0 Z " fill="#00FFFF" transform="translate(309,487)"/>
<path d="M0 0 C2 1 2 1 2 1 Z " fill="#007FFF" transform="translate(307,489)"/>
<path d="" fill="#000000" transform="translate(0,0)"/>
<path d="" fill="#00FFFF" transform="translate(0,0)"/>
<path d="" fill="#00FFFF" transform="translate(0,0)"/>
<path d="" fill="#000000" transform="translate(0,0)"/>
<path d="" fill="#000000" transform="translate(0,0)"/>
<path d="" fill="#00FFFF" transform="translate(0,0)"/>
<path d="" fill="#00FFFF" transform="translate(0,0)"/>
<path d="" fill="#000000" transform="translate(0,0)"/>
<path d="" fill="#00FFFF" transform="translate(0,0)"/>
</svg>
